<svg xmlns="http://www.w3.org/2000/svg" xmlns:xlink="http://www.w3.org/1999/xlink" width="300" zoomAndPan="magnify" viewBox="0 0 375 374.999991" height="300" preserveAspectRatio="xMidYMid meet" version="1.0"><defs><g/><clipPath id="id1"><path d="M 37.5 37.5 L 337.5 37.5 L 337.5 337.5 L 37.5 337.5 Z M 37.5 37.5 " clip-rule="nonzero"/></clipPath><clipPath id="id2"><path d="M 94 180 L 280 180 L 280 299.195312 L 94 299.195312 Z M 94 180 " clip-rule="nonzero"/></clipPath></defs><g clip-path="url(#id1)"><path fill="#493d8a" d="M 54.753906 37.503906 L 320.246094 37.503906 C 324.824219 37.503906 329.210938 39.320312 332.445312 42.554688 C 335.683594 45.789062 337.5 50.179688 337.5 54.753906 L 337.5 320.246094 C 337.5 324.820312 335.683594 329.210938 332.445312 332.445312 C 329.210938 335.679688 324.824219 337.496094 320.246094 337.496094 L 54.753906 337.496094 C 50.175781 337.496094 45.789062 335.679688 42.554688 332.445312 C 39.316406 329.210938 37.5 324.820312 37.5 320.246094 L 37.5 54.753906 C 37.5 50.179688 39.316406 45.789062 42.554688 42.554688 C 45.789062 39.320312 50.175781 37.503906 54.753906 37.503906 " fill-opacity="1" fill-rule="nonzero"/></g><g clip-path="url(#id2)"><path fill="#ffffff" d="M 274.902344 299.210938 L 99.757812 299.210938 C 97.109375 299.210938 94.964844 297.066406 94.964844 294.417969 L 94.964844 185.210938 C 94.964844 182.558594 97.109375 180.414062 99.757812 180.414062 C 102.40625 180.414062 104.550781 182.558594 104.550781 185.210938 L 104.550781 289.621094 L 270.109375 289.621094 L 270.109375 185.210938 C 270.109375 182.558594 272.257812 180.414062 274.902344 180.414062 C 277.550781 180.414062 279.695312 182.558594 279.695312 185.210938 L 279.695312 294.417969 C 279.695312 297.066406 277.550781 299.210938 274.902344 299.210938 " fill-opacity="1" fill-rule="nonzero"/></g><path fill="#ffffff" d="M 302.371094 174.988281 C 301.34375 174.988281 300.308594 174.660156 299.4375 173.976562 L 187.332031 86.921875 L 75.226562 173.976562 C 73.132812 175.605469 70.121094 175.222656 68.496094 173.132812 C 66.878906 171.035156 67.253906 168.023438 69.347656 166.402344 L 184.390625 77.058594 C 186.121094 75.71875 188.539062 75.71875 190.269531 77.058594 L 305.316406 166.402344 C 307.40625 168.023438 307.785156 171.035156 306.164062 173.132812 C 305.21875 174.347656 303.800781 174.988281 302.371094 174.988281 " fill-opacity="1" fill-rule="nonzero"/><path fill="#ffffff" d="M 214.03125 173.265625 L 213.699219 172.957031 L 194.914062 155.625 L 191.148438 159.390625 C 191.609375 160.691406 191.34375 162.1875 190.351562 163.265625 L 188.742188 165.007812 L 204.53125 182.136719 L 204.832031 182.46875 C 207.375 185.011719 211.492188 185.007812 214.03125 182.46875 C 216.566406 179.929688 216.570312 175.808594 214.03125 173.265625 Z M 211.753906 180.191406 C 210.472656 181.472656 208.394531 181.46875 207.113281 180.1875 C 204.160156 176.988281 208.554688 172.589844 211.75 175.546875 C 213.03125 176.828125 213.035156 178.90625 211.753906 180.191406 Z M 186.074219 147.464844 C 190.375 137.148438 180.328125 126.484375 169.78125 130.175781 C 169.78125 130.175781 176.410156 136.808594 176.410156 136.808594 C 177.71875 138.121094 177.71875 140.246094 176.410156 141.558594 L 173.152344 144.816406 C 171.84375 146.128906 169.71875 146.128906 168.410156 144.816406 L 161.78125 138.1875 C 158.066406 148.703125 168.789062 158.808594 179.054688 154.488281 C 179.054688 154.488281 180.761719 156.34375 180.761719 156.34375 L 182.148438 155.058594 C 183.167969 154.105469 184.714844 153.792969 186.023438 154.265625 C 186.023438 154.265625 189.582031 150.703125 189.582031 150.703125 Z M 186.074219 147.464844 " fill-opacity="1" fill-rule="nonzero"/><path fill="#ffffff" d="M 173.113281 181.34375 C 166.90625 187.09375 158.332031 178.550781 164.085938 172.308594 C 164.085938 172.308594 164.410156 172.011719 164.410156 172.011719 L 178.289062 159.203125 C 178.78125 158.710938 179.65625 158.804688 180.054688 159.238281 C 180.222656 159.089844 183.191406 156.339844 183.308594 156.234375 C 184.304688 155.3125 185.792969 155.757812 186.289062 156.328125 C 186.652344 155.964844 204.601562 138.007812 204.464844 138.132812 C 204.546875 137.945312 206.625 133.269531 206.566406 133.410156 C 206.707031 133.304688 210.074219 130.4375 209.898438 130.621094 C 210.085938 130.816406 214.902344 135.613281 214.773438 135.507812 C 214.648438 135.652344 211.871094 138.972656 211.972656 138.839844 C 211.371094 139.121094 206.894531 141.074219 207.234375 140.957031 C 206.609375 141.742188 188.695312 159.175781 189.1875 159.25 C 189.976562 160.074219 189.78125 161.566406 189.132812 162.15625 C 186.273438 165.476562 186.28125 165.484375 186.289062 165.496094 C 189.007812 162.289062 187.480469 163.945312 186.671875 164.824219 C 186.433594 165.085938 186.253906 165.277344 186.195312 165.339844 C 186.171875 165.367188 186.152344 165.339844 186.261719 165.464844 C 186.597656 165.902344 186.632812 166.449219 186.390625 166.886719 C 186.117188 167.289062 186.21875 167.101562 186.152344 167.199219 C 185.199219 168.230469 173.371094 181.066406 173.40625 181.027344 C 173.359375 181.082031 173.113281 181.34375 173.113281 181.34375 Z M 173.113281 181.34375 " fill-opacity="1" fill-rule="nonzero"/><g fill="#ffffff" fill-opacity="1"><g transform="translate(121.652341, 257.134056)"><g><path d="M 2.484375 -44.21875 C 2.484375 -45.101562 2.804688 -45.863281 3.453125 -46.5 C 4.109375 -47.132812 4.890625 -47.453125 5.796875 -47.453125 L 32.765625 -47.5 L 32.796875 -47.5 C 33.703125 -47.5 34.476562 -47.171875 35.125 -46.515625 C 35.78125 -45.867188 36.109375 -45.09375 36.109375 -44.1875 C 36.109375 -43.28125 35.78125 -42.5 35.125 -41.84375 C 34.476562 -41.195312 33.703125 -40.875 32.796875 -40.875 L 32.765625 -40.875 L 9.09375 -40.84375 L 9.140625 -28.796875 L 26.375 -28.953125 L 26.734375 -28.953125 C 27.554688 -28.953125 28.257812 -28.613281 28.84375 -27.9375 C 29.425781 -27.269531 29.71875 -26.570312 29.71875 -25.84375 C 29.71875 -24.875 29.40625 -24.046875 28.78125 -23.359375 C 28.164062 -22.679688 27.375 -22.34375 26.40625 -22.34375 L 9.171875 -22.171875 L 9.203125 -2.90625 L 9.203125 -2.84375 C 9.203125 -1.957031 8.875 -1.195312 8.21875 -0.5625 C 7.570312 0.0703125 6.796875 0.390625 5.890625 0.390625 C 4.984375 0.390625 4.203125 0.0703125 3.546875 -0.5625 C 2.898438 -1.195312 2.578125 -1.957031 2.578125 -2.84375 L 2.578125 -2.875 Z M 2.484375 -44.21875 "/></g></g></g><g fill="#ffffff" fill-opacity="1"><g transform="translate(160.235968, 257.134056)"><g><path d="M 8.984375 -0.640625 C 8.335938 0.00390625 7.5625 0.328125 6.65625 0.328125 C 5.75 0.328125 4.96875 0.00390625 4.3125 -0.640625 C 3.664062 -1.296875 3.34375 -2.078125 3.34375 -2.984375 L 3.3125 -44.375 C 3.3125 -45.238281 3.625 -46.003906 4.25 -46.671875 C 4.882812 -47.347656 5.617188 -47.6875 6.453125 -47.6875 C 7.460938 -47.6875 8.289062 -47.375 8.9375 -46.75 C 9.59375 -46.125 9.921875 -45.332031 9.921875 -44.375 L 9.96875 -2.984375 C 9.96875 -2.078125 9.640625 -1.296875 8.984375 -0.640625 Z M 8.984375 -0.640625 "/></g></g></g><g fill="#ffffff" fill-opacity="1"><g transform="translate(173.5053, 257.134056)"><g><path d="M 36.109375 -47.296875 C 37.035156 -47.296875 37.816406 -46.96875 38.453125 -46.3125 C 39.097656 -45.664062 39.421875 -44.890625 39.421875 -43.984375 C 39.421875 -43.210938 39.1875 -42.539062 38.71875 -41.96875 L 25.359375 -24.15625 L 40.171875 -4.53125 C 40.640625 -3.957031 40.875 -3.285156 40.875 -2.515625 C 40.875 -1.609375 40.546875 -0.828125 39.890625 -0.171875 C 39.242188 0.472656 38.46875 0.796875 37.5625 0.796875 C 37.101562 0.796875 36.613281 0.660156 36.09375 0.390625 C 35.570312 0.128906 35.171875 -0.1875 34.890625 -0.5625 L 21.21875 -18.671875 L 7.640625 -0.625 C 7.359375 -0.25 6.957031 0.0703125 6.4375 0.34375 C 5.914062 0.625 5.425781 0.765625 4.96875 0.765625 C 4.0625 0.765625 3.28125 0.441406 2.625 -0.203125 C 1.976562 -0.859375 1.65625 -1.640625 1.65625 -2.546875 C 1.65625 -3.335938 1.882812 -4.019531 2.34375 -4.59375 L 17.046875 -24.15625 L 3.546875 -42.0625 C 3.078125 -42.632812 2.84375 -43.304688 2.84375 -44.078125 C 2.84375 -44.984375 3.164062 -45.757812 3.8125 -46.40625 C 4.46875 -47.0625 5.25 -47.390625 6.15625 -47.390625 C 6.613281 -47.390625 7.109375 -47.253906 7.640625 -46.984375 C 8.171875 -46.722656 8.570312 -46.40625 8.84375 -46.03125 L 21.21875 -29.65625 L 33.421875 -45.9375 C 33.710938 -46.3125 34.113281 -46.628906 34.625 -46.890625 C 35.144531 -47.160156 35.640625 -47.296875 36.109375 -47.296875 Z M 36.109375 -47.296875 "/></g></g></g><g fill="#ffffff" fill-opacity="1"><g transform="translate(215.993617, 257.134056)"><g><path d="M 0.828125 -45.109375 C 0.828125 -45.992188 1.1875 -46.726562 1.90625 -47.3125 C 2.625 -47.894531 3.429688 -48.1875 4.328125 -48.1875 C 5.484375 -48.1875 6.367188 -47.65625 6.984375 -46.59375 L 18.796875 -26.25 L 30.34375 -46.40625 C 30.59375 -46.78125 30.960938 -47.125 31.453125 -47.4375 C 31.953125 -47.757812 32.457031 -47.921875 32.96875 -47.921875 C 33.5625 -47.921875 34.046875 -47.859375 34.421875 -47.734375 C 34.796875 -47.617188 35.191406 -47.351562 35.609375 -46.9375 C 36.222656 -46.269531 36.53125 -45.570312 36.53125 -44.84375 C 36.53125 -44.132812 36.367188 -43.503906 36.046875 -42.953125 L 21.96875 -19.0625 L 21.75 -2.578125 C 21.75 -1.691406 21.421875 -0.9375 20.765625 -0.3125 C 20.117188 0.3125 19.34375 0.625 18.4375 0.625 C 17.53125 0.625 16.75 0.3125 16.09375 -0.3125 C 15.445312 -0.9375 15.125 -1.691406 15.125 -2.578125 L 15.125 -2.640625 L 15.359375 -19.5 L 1.359375 -43.21875 C 1.003906 -43.726562 0.828125 -44.359375 0.828125 -45.109375 Z M 0.828125 -45.109375 "/></g></g></g></svg>